:version 1.10
:name ASF
:units
  mass 1
  length 1
  angle deg
:documentation
  ASF file generated by Kaydara
:root
  axis xyz
  order  tx ty tz rx ry rz
  position 0 0 0
  orientation 0 0 0
:bonedata
  begin
    id 1
    name RightUpLegDummy
    direction -0.718183 -0.695806 0.00816078
    length 4.904
    axis 0 0 0 xyz
  end
  begin
    id 2
    name RightUpLeg
    direction 3.53373e-006 -0.995788 0.0916898
    length 17.4976
    axis -3.49089 -0.000906625 0.000286804 xyz
    dof rx ry rz
  end
  begin
    id 3
    name RightLeg
    direction 0.00371092 -0.995096 -0.0988419
    length 16.5821
    axis 3.68512 0.0193738 -0.131023 xyz
    dof rx ry rz
  end
  begin
    id 4
    name RightFoot
    direction 0.00079151 -0.46099 0.887405
    length 3.77069
    axis 4.81691e-005 -0.120479 -0.188788 xyz
    dof rx ry rz
  end
  begin
    id 5
    name RightToes
    direction 0 0 0
    length 0
    axis 0 0 0 xyz
    dof rx ry rz
  end
  begin
    id 6
    name SpineDummy
    direction 8.3039e-015 1 4.57515e-016
    length 4.6813
    axis 0 0 0 xyz
  end
  begin
    id 7
    name Spine
    direction -3.15643e-008 0.999988 0.00495137
    length 10.1015
    axis -0.001389 0.000121418 2.40972e-006 xyz
    dof rx ry rz
  end
  begin
    id 8
    name Spine1
    direction 0 0 0
    length 0
    axis -0.001389 0.000121451 1.30017e-006 xyz
    dof rx ry rz
  end
  begin
    id 9
    name HEadDummy
    direction -1.99912e-008 0.999999 0.00127422
    length 3.43865
    axis -0.001389 0.000121451 1.30017e-006 xyz
  end
  begin
    id 10
    name HEad
    direction 0 0 0
    length 0
    axis 0 0 0 xyz
    dof rx ry rz
  end
  begin
    id 11
    name LeftShoulder1Dummy
    direction 0.998891 -0.0402509 -0.0244456
    length 3.5433
    axis -0.001389 0.000121451 1.30017e-006 xyz
  end
  begin
    id 12
    name LeftShoulder1
    direction 0.99951 -0.000327763 0.0313091
    length 4.05031
    axis -0.001389 0.000121451 1.30017e-006 xyz
    dof rx ry rz
  end
  begin
    id 13
    name LeftArm
    direction 0.998561 -0.00100056 -0.0536182
    length 10.3537
    axis -23.1894 0.134784 0.967509 xyz
    dof rx ry rz
  end
  begin
    id 14
    name LeftForeArm
    direction 0.998903 0.00866432 0.046012
    length 8.70632
    axis -9.91835 -0.06569 -0.177794 xyz
    dof rx ry rz
  end
  begin
    id 15
    name LeftHand
    direction 0 0 0
    length 0
    axis 0 0 0 xyz
    dof rx ry rz
  end
  begin
    id 16
    name RightShoulderDummy
    direction -0.998891 -0.0402509 -0.0244414
    length 3.5433
    axis -0.001389 0.000121451 1.30017e-006 xyz
  end
  begin
    id 17
    name RightShoulder
    direction -0.99951 -0.000327807 0.0313133
    length 4.05031
    axis 0.215806 0.000203643 -0.0068026 xyz
    dof rx ry rz
  end
  begin
    id 18
    name RightArm
    direction -0.998573 -0.000999564 -0.053403
    length 10.3947
    axis -23.2009 -0.134239 -0.964101 xyz
    dof rx ry rz
  end
  begin
    id 19
    name RightForeArm
    direction -0.998898 0.00868028 0.0461306
    length 8.68355
    axis -9.92322 0.0658061 0.178868 xyz
    dof rx ry rz
  end
  begin
    id 20
    name RightHand
    direction 0 0 0
    length 0
    axis 0 0 0 xyz
    dof rx ry rz
  end
  begin
    id 21
    name LeftUpLegDummy
    direction 0.718183 -0.695806 0.00816078
    length 4.904
    axis 0 0 0 xyz
  end
  begin
    id 22
    name LeftUpLeg
    direction -6.81752e-006 -0.995793 0.0916337
    length 17.4976
    axis -3.48766 0.00143442 -0.000524262 xyz
    dof rx ry rz
  end
  begin
    id 23
    name LeftLeg
    direction -0.00601358 -0.995091 -0.0987824
    length 16.5821
    axis 3.68178 -0.00654042 -0.000285133 xyz
    dof rx ry rz
  end
  begin
    id 24
    name LeftFoot
    direction -0.00417578 -0.460984 0.887399
    length 3.77069
    axis 1.87233e-006 4.66016e-005 -8.6538e-006 xyz
    dof rx ry rz
  end
  begin
    id 25
    name LeftToes
    direction 0 0 0
    length 0
    axis 0 0 0 xyz
    dof rx ry rz
  end
:hierarchy
  begin
    root RightUpLegDummy SpineDummy LeftUpLegDummy
    RightUpLegDummy RightUpLeg
    RightUpLeg RightLeg
    RightLeg RightFoot
    RightFoot RightToes
    SpineDummy Spine
    Spine Spine1
    Spine1 HEadDummy LeftShoulder1Dummy RightShoulderDummy
    HEadDummy HEad
    LeftShoulder1Dummy LeftShoulder1
    LeftShoulder1 LeftArm
    LeftArm LeftForeArm
    LeftForeArm LeftHand
    RightShoulderDummy RightShoulder
    RightShoulder RightArm
    RightArm RightForeArm
    RightForeArm RightHand
    LeftUpLegDummy LeftUpLeg
    LeftUpLeg LeftLeg
    LeftLeg LeftFoot
    LeftFoot LeftToes
  end

:SAMPLES-PER-SECOND 30
:FULLY-SPECIFIED
:DEGREES
188
root  9.163 38.6288 -1.63828 134.529 86.9827 130.789
RightUpLeg  -24.2818 -16.9899 1.33573
RightLeg  36.5642 -6.64436 -5.52959
RightFoot  -14.7337 -0.122492 -0.831207
RightToes  0.000481921 0.542163 -0.142578
Spine  22.1777 -0.93094 5.77796
Spine1  0.524862 0.296093 -1.75206
HEad  -7.16365 2.13282 -3.88071
LeftShoulder1  7.75815 -13.8969 -38.4162
LeftArm  -1.12431 -6.37123 -37.8006
LeftForeArm  178.485 -63.2774 -161.278
LeftHand  -0.25398 0.0180481 5.50724
RightShoulder  4.81059 10.4019 28.5997
RightArm  1.31273 -1.90281 48.8911
RightForeArm  167.485 61.5581 161.5
RightHand  -1.18798 2.76666 -17.0714
LeftUpLeg  -21.7021 19.4554 -2.08186
LeftLeg  33.3084 3.81952 3.05906
LeftFoot  -12.1148 0.0572991 -2.00561
LeftToes  1.06245e-005 4.65868e-005 -8.65517e-006
189
root  9.02799 38.5101 -1.80014 145.558 86.2695 141.49
RightUpLeg  -24.754 -16.675 1.395
RightLeg  36.5777 -8.70369 -7.14645
RightFoot  -15.1975 -0.191058 -2.65379
RightToes  0.000481921 0.542163 -0.142578
Spine  22.5792 -1.14322 6.25118
Spine1  0.284235 0.117889 -1.76394
HEad  -7.79289 1.46274 -3.5653
LeftShoulder1  7.78032 -13.9414 -38.4291
LeftArm  -1.16597 -6.80414 -37.913
LeftForeArm  178.582 -63.0808 -161.439
LeftHand  -0.25398 0.0180481 5.50724
RightShoulder  4.79603 10.3425 28.6443
RightArm  1.24041 -1.58108 48.9049
RightForeArm  167.286 61.4796 161.538
RightHand  -1.19788 2.77616 -17.1906
LeftUpLeg  -24.0819 20.0674 -2.50701
LeftLeg  36.1174 2.40273 2.23124
LeftFoot  -10.8666 0.0782013 -2.4127
LeftToes  1.06245e-005 4.65868e-005 -8.65517e-006
190
root  8.83757 38.3725 -1.96561 156.296 85.599 151.931
RightUpLeg  -25.8965 -17.6319 1.37794
RightLeg  37.4945 -8.79315 -7.43884
RightFoot  -15.0259 -0.166064 -2.0006
RightToes  0.000481921 0.542163 -0.142578
Spine  23.2324 -1.41467 7.10743
Spine1  -0.0155851 -0.0146817 -1.89914
HEad  -8.81289 0.787915 -3.16911
LeftShoulder1  7.82056 -14.0311 -38.43
LeftArm  -1.28668 -7.4499 -38.2947
LeftForeArm  178.755 -62.9105 -161.586
LeftHand  -0.25398 0.0180481 5.50724
RightShoulder  4.76782 10.3198 28.4935
RightArm  1.05371 -1.04222 48.8905
RightForeArm  166.766 61.3727 161.566
RightHand  -1.20784 2.75105 -17.3801
LeftUpLeg  -27.3167 21.0344 -2.28388
LeftLeg  40.4166 -0.631319 -0.226912
LeftFoot  -8.34573 0.211266 -5.79967
LeftToes  1.06245e-005 4.65868e-005 -8.65517e-006
191
root  8.63378 38.192 -2.11809 164.037 85.1031 159.341
RightUpLeg  -27.3417 -19.286 1.78056
RightLeg  38.6911 -7.56224 -6.7308
RightFoot  -14.9448 -0.148522 -1.50738
RightToes  0.000481921 0.542163 -0.142578
Spine  23.9992 -1.48376 7.69106
Spine1  -0.495966 -0.0694806 -1.63584
HEad  -9.72087 0.243254 -2.63846
LeftShoulder1  7.84205 -14.1094 -38.3567
LeftArm  -1.34107 -8.01973 -38.8871
LeftForeArm  179.032 -62.777 -161.713
LeftHand  -0.25398 0.0180481 5.50724
RightShoulder  4.75236 10.3391 28.3293
RightArm  0.905241 -0.429614 48.7359
RightForeArm  166.466 61.3437 161.558
RightHand  -1.22014 2.78138 -17.4922
LeftUpLeg  -30.5276 21.4676 -1.36665
LeftLeg  44.9152 -3.59334 -3.40851
LeftFoot  -6.42633 0.506605 -11.0641
LeftToes  1.06245e-005 4.65868e-005 -8.65517e-006
192
root  8.44089 38.0177 -2.25513 166.784 84.7815 161.725
RightUpLeg  -28.7081 -19.8859 2.05307
RightLeg  39.8179 -7.34298 -6.80834
RightFoot  -15.1377 -0.170549 -2.05812
RightToes  0.000481921 0.542163 -0.142578
Spine  24.8985 -1.35238 7.61304
Spine1  -1.01316 -0.071914 -1.08422
HEad  -10.532 -0.117474 -2.03578
LeftShoulder1  7.83968 -14.1325 -38.288
LeftArm  -1.35371 -8.49553 -39.3195
LeftForeArm  179.312 -62.5676 -161.896
LeftHand  -0.25398 0.0180481 5.50724
RightShoulder  4.76436 10.3772 28.3211
RightArm  0.89569 0.18376 48.5672
RightForeArm  166.614 61.4126 161.523
RightHand  -1.23125 2.88427 -17.4171
LeftUpLeg  -32.6318 20.363 -0.0586595
LeftLeg  47.3422 -4.14525 -4.37055
LeftFoot  -6.80337 0.597033 -13.9921
LeftToes  1.06245e-005 4.65868e-005 -8.65517e-006
193
root  8.26246 37.904 -2.41331 165.475 84.4886 160.144
RightUpLeg  -29.7432 -19.1531 1.6619
RightLeg  40.7769 -8.27796 -7.87331
RightFoot  -15.1821 -0.179369 -2.28679
RightToes  0.000481921 0.542163 -0.142578
Spine  25.8513 -1.28101 7.22135
Spine1  -1.24826 -0.067398 -0.906804
HEad  -11.5162 -0.385073 -1.52355
LeftShoulder1  7.85338 -14.1546 -38.3088
LeftArm  -1.42346 -9.04374 -39.3973
LeftForeArm  179.447 -62.3275 -162.086
LeftHand  -0.25398 0.0180481 5.50724
RightShoulder  4.79163 10.4127 28.4323
RightArm  0.947059 0.760654 48.5782
RightForeArm  166.771 61.5194 161.46
RightHand  -1.24067 2.95967 -17.2917
LeftUpLeg  -33.1237 17.6379 1.24192
LeftLeg  46.4872 -2.07398 -1.9592
LeftFoot  -8.40565 0.377335 -12.6125
LeftToes  1.06245e-005 4.65868e-005 -8.65517e-006
194
root  8.10914 37.7908 -2.64286 163.311 84.2357 157.817
RightUpLeg  -30.6682 -18.0234 0.893707
RightLeg  41.9421 -9.05907 -8.91462
RightFoot  -15.031 -0.156064 -1.68879
RightToes  0.000481921 0.542163 -0.142578
Spine  26.688 -1.36969 7.11372
Spine1  -1.18359 -0.0496306 -1.24476
HEad  -12.5128 -0.647881 -1.22398
LeftShoulder1  7.89359 -14.2164 -38.3776
LeftArm  -1.5188 -9.65018 -39.3718
LeftForeArm  179.515 -62.2497 -162.149
LeftHand  -0.25398 0.0180481 5.50724
RightShoulder  4.81531 10.4548 28.4998
RightArm  0.95566 1.19359 48.7532
RightForeArm  166.629 61.6218 161.371
RightHand  -1.23979 2.94075 -17.3075
LeftUpLeg  -32.4928 14.5523 2.10911
LeftLeg  43.6943 0.642101 1.06243
LeftFoot  -9.28776 0.221706 -9.36174
LeftToes  1.06245e-005 4.65868e-005 -8.65517e-006
195
root  7.97818 37.6371 -2.94142 161.316 84.0869 155.613
RightUpLeg  -31.7434 -17.0904 0.117056
RightLeg  43.3239 -9.3734 -9.64651
RightFoot  -14.9521 -0.137759 -1.1637
RightToes  0.000481921 0.542163 -0.142578
Spine  27.3933 -1.45714 7.14079
Spine1  -1.16726 -0.0124936 -1.58029
HEad  -13.162 -0.868836 -1.11186
LeftShoulder1  7.91645 -14.2415 -38.4406
LeftArm  -1.53066 -10.181 -39.5332
LeftForeArm  179.752 -62.3519 -162.097
LeftHand  -0.25398 0.0180481 5.50724
RightShoulder  4.82537 10.5094 28.4355
RightArm  0.947549 1.41255 48.9246
RightForeArm  166.515 61.7024 161.301
RightHand  -1.23484 2.90828 -17.3956
LeftUpLeg  -31.8801 12.8219 2.02015
LeftLeg  41.4337 1.52435 1.83877
LeftFoot  -9.6945 0.161233 -7.19029
LeftToes  1.06245e-005 4.65868e-005 -8.65517e-006
196
root  7.83764 37.4679 -3.26423 159.778 83.9421 153.735
RightUpLeg  -32.9739 -16.3762 -0.62651
RightLeg  44.6773 -9.69093 -10.4194
RightFoot  -14.9834 -0.132438 -0.978445
RightToes  0.000481921 0.542163 -0.142578
Spine  28.1286 -1.46211 6.96285
Spine1  -1.42171 -0.0113572 -1.55295
HEad  -13.5739 -0.988908 -1.01828
LeftShoulder1  7.89465 -14.1728 -38.4887
LeftArm  -1.46091 -10.693 -39.8381
LeftForeArm  -179.884 -62.4416 -162.066
LeftHand  -0.25398 0.0180481 5.50724
RightShoulder  4.82964 10.5558 28.3497
RightArm  0.955296 1.52582 48.9546
RightForeArm  166.751 61.7242 161.307
RightHand  -1.2389 2.97889 -17.3574
LeftUpLeg  -32.1831 12.7311 0.945917
LeftLeg  41.0313 1.05018 1.36257
LeftFoot  -10.4715 0.107433 -5.80554
LeftToes  1.06245e-005 4.65868e-005 -8.65517e-006
197
root  7.66985 37.3033 -3.59038 160.126 83.7522 153.748
RightUpLeg  -34.167 -15.9215 -1.26539
RightLeg  45.9035 -9.93724 -11.1179
RightFoot  -14.9956 -0.117351 -0.497319
RightToes  0.000481921 0.542163 -0.142578
Spine  28.9417 -1.51391 6.88592
Spine1  -1.77306 -0.0617096 -1.41944
HEad  -14.1238 -1.0622 -0.781849
LeftShoulder1  7.85634 -14.104 -38.4476
LeftArm  -1.39966 -11.3338 -40.1181
LeftForeArm  -179.707 -62.4346 -162.087
LeftHand  -0.25398 0.0180481 5.50724
RightShoulder  4.85667 10.6005 28.4344
RightArm  0.867027 1.68115 48.8031
RightForeArm  167.064 61.6797 161.37
RightHand  -1.25043 3.11593 -17.2418
LeftUpLeg  -33.2732 12.9728 -0.290598
LeftLeg  41.9616 1.37568 1.72002
LeftFoot  -11.4066 0.0658535 -4.22216
LeftToes  1.06245e-005 4.65868e-005 -8.65517e-006
198
root  7.50241 37.1409 -3.92154 161.976 83.6586 155.371
RightUpLeg  -35.1787 -15.6764 -1.72099
RightLeg  46.9887 -9.85662 -11.4473
RightFoot  -14.9754 -0.089777 0.364006
RightToes  0.000481921 0.542163 -0.142578
Spine  29.7115 -1.66101 7.17829
Spine1  -1.96878 -0.0671125 -1.56837
HEad  -14.7622 -1.15265 -0.438924
LeftShoulder1  7.82989 -14.1268 -38.2484
LeftArm  -1.37387 -12.0143 -40.3462
LeftForeArm  -179.768 -62.4339 -162.082
LeftHand  -0.25398 0.0180481 5.50724
RightShoulder  4.92864 10.6959 28.7166
RightArm  0.587692 1.85992 48.5324
RightForeArm  167.021 61.6495 161.388
RightHand  -1.25774 3.14354 -17.2868
LeftUpLeg  -34.4482 12.6656 -1.01787
LeftLeg  43.1178 2.41395 2.81646
LeftFoot  -12.115 0.0510039 -3.12373
LeftToes  1.06245e-005 4.65868e-005 -8.65517e-006
199
root  7.36759 36.9624 -4.25018 163.135 83.8091 156.323
RightUpLeg  -36.1424 -15.3706 -2.09992
RightLeg  48.0492 -9.63256 -11.6175
RightFoot  -15.0453 -0.0673889 1.06459
RightToes  0.000481921 0.542163 -0.142578
Spine  30.3642 -1.7416 7.47739
Spine1  -2.1055 0.0342258 -1.84399
HEad  -15.1569 -1.19161 -0.170341
LeftShoulder1  7.79891 -14.1553 -38.011
LeftArm  -1.34825 -12.4997 -40.5188
LeftForeArm  -179.769 -62.4643 -162.06
LeftHand  -0.25398 0.0180481 5.50724
RightShoulder  5.02872 10.8504 29.0477
RightArm  0.242831 1.96968 48.2621
RightForeArm  166.734 61.6982 161.325
RightHand  -1.25258 3.00271 -17.492
LeftUpLeg  -35.4166 12.1342 -1.41076
LeftLeg  44.2148 2.91168 3.43318
LeftFoot  -12.8145 0.0369025 -3.07006
LeftToes  1.06245e-005 4.65868e-005 -8.65517e-006
200
root  7.25619 36.759 -4.55587 162.676 84.1109 155.602
RightUpLeg  -37.2386 -14.9669 -2.53901
RightLeg  49.2327 -9.45678 -11.8927
RightFoot  -15.2453 -0.0545673 1.42739
RightToes  0.000481921 0.542163 -0.142578
Spine  30.9976 -1.65776 7.38007
Spine1  -2.4242 0.154058 -1.83916
HEad  -15.3838 -1.10054 -0.03064
LeftShoulder1  7.74508 -14.0745 -37.9119
LeftArm  -1.33303 -12.784 -40.5333
LeftForeArm  -179.628 -62.4093 -162.113
LeftHand  -0.25398 0.0180481 5.50724
RightShoulder  5.11623 10.9821 29.3392
RightArm  0.000241357 2.04105 48.0732
RightForeArm  166.653 61.7491 161.279
RightHand  -1.24217 2.87217 -17.6106
LeftUpLeg  -36.414 11.8351 -1.90741
LeftLeg  45.5277 2.9368 3.61474
LeftFoot  -13.7427 0.0152774 -3.21549
LeftToes  1.06245e-005 4.65868e-005 -8.65517e-006
201
root  7.14116 36.5492 -4.82892 161.928 84.3322 154.628
RightUpLeg  -38.3655 -14.7615 -2.98036
RightLeg  50.4702 -9.19238 -12.0884
RightFoot  -15.4716 -0.0436178 1.69554
RightToes  0.000481921 0.542163 -0.142578
Spine  31.7008 -1.54349 7.08894
Spine1  -2.80238 0.197169 -1.59394
HEad  -15.8636 -0.973753 0.092822
LeftShoulder1  7.69487 -13.9577 -37.9192
LeftArm  -1.38418 -13.0788 -40.3706
LeftForeArm  -179.614 -62.2645 -162.22
LeftHand  -0.25398 0.0180481 5.50724
RightShoulder  5.16589 11.0211 29.5911
RightArm  -0.200348 2.17318 48.0107
RightForeArm  166.833 61.703 161.331
RightHand  -1.24696 2.91974 -17.5808
LeftUpLeg  -37.5554 11.7393 -2.50498
LeftLeg  47.0476 3.14818 4.04379
LeftFoot  -14.5647 0.00746085 -2.84014
LeftToes  1.06245e-005 4.65868e-005 -8.65517e-006
202
root  7.0245 36.3518 -5.07885 162.297 84.4268 154.878
RightUpLeg  -39.3163 -14.8693 -3.30667
RightLeg  51.5739 -8.75317 -12.0049
RightFoot  -15.6394 -0.0308106 2.00128
RightToes  0.000481921 0.542163 -0.142578
Spine  32.3482 -1.52451 7.01117
Spine1  -2.86456 0.203556 -1.42459
HEad  -16.6737 -0.961918 0.215515
LeftShoulder1  7.69092 -13.9488 -37.9189
LeftArm  -1.50553 -13.4767 -40.198
LeftForeArm  -179.79 -62.2089 -162.244
LeftHand  -0.25398 0.0180481 5.50724
RightShoulder  5.16912 10.9906 29.6899
RightArm  -0.503965 2.37357 48.1412
RightForeArm  166.942 61.6243 161.399
RightHand  -1.26764 3.06026 -17.5812
LeftUpLeg  -38.6304 11.7079 -2.9834
LeftLeg  48.4602 3.38755 4.5244
LeftFoot  -15.0794 0.0138081 -2.343
LeftToes  1.06245e-005 4.65868e-005 -8.65517e-006
